<svg width="1440" height="1024" viewBox="0 0 1440 1024" fill="none" xmlns="http://www.w3.org/2000/svg">
<g clip-path="url(#clip0_1_2)">
<rect width="1440" height="1024" fill="url(#paint0_linear_1_2)"/>
<path d="M-31.6536 184.322C-25.8048 177.6 -20.0015 170.844 -14.0747 164.189C-12.8832 162.848 -12.7663 161.697 -13.3865 159.974C-19.796 142.2 -26.0517 124.378 -32.5301 106.626C-33.7828 103.188 -33.267 100.826 -30.8575 98.3432C-24.9098 92.2161 -19.1527 85.8998 -13.4872 79.5097C-11.276 77.0183 -8.93705 76.3069 -5.49317 77.1833C13.3071 81.9691 32.1482 86.5503 50.9584 91.2744C52.6051 91.6881 53.5833 91.409 54.6517 90.1953C66.3497 76.8501 78.1476 63.5978 89.8136 50.2248C91.8029 47.9384 93.977 47.1012 97.1174 47.5028C105.8 48.6038 114.494 49.5981 123.194 50.3569C127.353 50.7195 129.711 52.5365 131.214 56.4965C137.841 73.9626 144.707 91.3487 151.393 108.79C152.042 110.479 152.955 111.156 154.632 111.549C172.899 115.83 191.14 120.264 209.421 124.457C213.187 125.321 215.124 127.106 216.085 130.829C218.156 138.85 220.541 146.81 222.931 154.763C223.744 157.467 223.227 159.523 221.561 161.617C209.947 176.183 198.442 190.832 186.853 205.413C185.865 206.656 185.722 207.709 186.352 209.276C193.381 226.769 200.249 244.316 207.365 261.779C208.836 265.389 208.538 267.988 206.033 270.774C200.176 277.284 194.551 284.014 188.974 290.768C187.056 293.087 184.916 293.749 181.837 293.12C163.405 289.358 144.949 285.744 126.514 282.008C124.786 281.658 123.754 281.978 122.652 283.28C111.241 296.775 99.716 310.165 88.3263 323.679C86.2833 326.106 84.1059 326.911 80.8161 326.087C71.6731 323.789 62.502 321.631 53.3056 319.638C49.9646 318.915 48.1064 317.269 46.9051 314.051C40.138 295.907 33.1727 277.82 26.3647 259.687C25.7019 257.928 24.772 257.177 22.9742 256.772C4.30144 252.578 -14.3436 248.208 -33.0359 244.108C-36.934 243.252 -39.0363 241.399 -40.3574 237.668C-43.4165 229.021 -46.7306 220.446 -50.1819 211.922C-51.4961 208.676 -50.9606 206.349 -48.799 203.943C-42.9881 197.486 -37.3588 190.865 -31.6514 184.313L-31.6536 184.322ZM29.2681 250.133C29.9902 249.303 30.4719 248.785 30.9152 248.24C36.0118 241.952 41.0624 235.624 46.2293 229.392C47.2274 228.187 47.2402 227.191 46.6514 225.748C39.6475 208.657 32.75 191.53 25.69 174.46C24.6027 171.828 24.8592 170.007 26.6177 167.936C38.5249 153.906 50.3257 139.784 62.0882 125.634C62.6684 124.938 62.9938 123.576 62.724 122.697C60.4716 115.344 58.0612 108.03 55.6731 100.711C54.9376 98.4548 54.1935 98.1998 52.5405 99.7774C50.2531 101.962 48.0776 104.262 45.8624 106.522C37.7304 114.83 29.6127 123.151 21.4701 131.45C19.2549 133.709 17.0432 135.972 14.7126 138.113C13.2851 139.425 12.0127 139.032 11.0879 137.208C10.8417 136.725 10.6762 136.206 10.4832 135.705C4.29299 119.72 -1.89369 103.738 -8.09326 87.7571C-8.35655 87.0713 -8.69816 86.411 -9.1011 85.5276C-9.71945 86.1022 -10.1657 86.4576 -10.5476 86.8749C-15.3439 92.0654 -20.0976 97.293 -24.9478 102.431C-26.0124 103.554 -26.1038 104.54 -25.5691 106.024C-19.1426 123.872 -12.8546 141.757 -6.34035 159.575C-5.09255 162.997 -5.59962 165.414 -7.85017 167.965C-19.4393 181.106 -30.8729 194.377 -42.4159 207.558C-43.5156 208.815 -43.7888 209.859 -43.1132 211.554C-40.231 218.799 -37.5169 226.108 -34.7346 233.389C-34.4574 234.117 -34.1049 234.822 -33.6664 235.8C-21.4681 222.732 -9.55038 209.994 2.32896 197.228C4.92141 194.442 6.02355 194.622 7.56155 198.291C13.2345 211.84 18.898 225.393 24.5709 238.943C26.0837 242.555 27.6059 246.163 29.2752 250.139L29.2681 250.133ZM177.688 206.85C176.697 206.579 175.977 206.346 175.247 206.19C167.935 204.601 160.609 203.088 153.314 201.402C151.7 201.029 150.825 201.462 149.852 202.565C137.764 216.244 125.594 229.853 113.539 243.566C111.896 245.433 110.255 245.815 107.778 245.195C89.1931 240.52 70.5835 235.988 51.9967 231.329C50.3071 230.907 49.3576 231.247 48.3582 232.503C44.6022 237.228 40.7192 241.849 36.9207 246.537C35.4215 248.389 34.0311 250.324 32.4109 252.451C35.4218 253.238 38.0978 253.944 40.7754 254.634C56.1176 258.595 71.4592 262.55 86.8021 266.518C89.7524 267.281 90.4037 268.574 88.8286 270.571C78.3342 283.851 67.8256 297.118 57.3277 310.395C56.702 311.185 56.1509 312.041 55.3947 313.111C56.4972 313.391 57.2983 313.601 58.0975 313.793C65.3865 315.515 72.6871 317.158 79.955 318.99C81.8872 319.477 82.9746 319.029 84.1712 317.611C95.4415 304.292 106.846 291.09 118.074 277.734C120.282 275.11 122.612 274.315 126.154 275.043C144.499 278.835 162.879 282.406 181.238 286.123C182.79 286.437 183.733 286.162 184.705 284.981C189.528 279.129 194.451 273.364 199.335 267.564C199.693 267.138 199.994 266.656 200.511 265.94C196.422 265.06 192.602 264.236 188.782 263.419C174.678 260.406 160.571 257.396 146.469 254.373C143.465 253.728 142.743 252.431 144.284 250.423C152.449 239.807 160.642 229.215 168.803 218.596C171.744 214.772 174.625 210.901 177.685 206.854L177.688 206.85ZM59.0184 99.3584C59.3405 100.499 59.5239 101.227 59.7547 101.943C61.8143 108.314 63.9371 114.67 65.9019 121.064C66.4083 122.717 67.2183 123.369 68.8917 123.695C88.2476 127.476 107.585 131.401 126.954 135.111C129.9 135.678 131.278 136.988 132.242 139.741C138.786 158.435 145.5 177.077 152.094 195.756C152.633 197.278 153.393 197.951 154.966 198.271C161.385 199.581 167.78 201.034 174.187 202.422C174.915 202.581 175.658 202.666 176.625 202.822C176.308 201.861 176.091 201.144 175.835 200.436C169.421 182.588 163.001 164.74 156.587 146.892C155.238 143.135 156.023 142.261 159.93 143.172C172.407 146.092 184.882 149.023 197.357 151.954C203.578 153.413 209.796 154.876 216.262 156.397C216.009 155.392 215.837 154.658 215.632 153.934C213.685 147.14 211.675 140.361 209.81 133.55C209.359 131.899 208.584 131.213 206.911 130.823C188.499 126.515 170.111 122.065 151.695 117.79C148.534 117.054 146.774 115.452 145.62 112.446C138.86 94.7881 131.934 77.1852 125.164 59.5313C124.497 57.7913 123.646 57.215 121.876 57.0508C115.088 56.4153 108.308 55.6054 101.523 54.8666C100.705 54.7756 99.8858 54.7425 98.8392 54.6634C99.1628 55.595 99.39 56.308 99.6575 57.0033C106.016 73.497 112.377 89.9875 118.732 106.485C120.047 109.901 119.248 110.898 115.672 110.223C107.122 108.605 98.5748 106.954 90.0254 105.313C79.8198 103.355 69.6112 101.401 59.0232 99.3743L59.0184 99.3584ZM111.136 240.368C111.66 239.888 111.894 239.705 112.089 239.488C124.133 226.075 136.155 212.643 148.239 199.27C149.24 198.162 148.976 197.206 148.547 196.001C142.292 178.514 136.06 161.017 129.821 143.526C129.523 142.687 129.178 141.866 128.777 140.837C128.239 141.348 127.901 141.622 127.62 141.945C115.447 156.03 103.29 170.124 91.0812 184.178C90.1591 185.238 90.1701 186.15 90.6641 187.423C95.2574 199.219 99.797 211.027 104.356 222.834C106.572 228.574 108.797 234.311 111.139 240.372L111.136 240.368ZM29.6058 169.652C30.8553 170.042 31.3438 170.233 31.8408 170.349C49.5588 174.573 67.2771 178.769 84.9844 183.049C86.8219 183.494 87.788 182.806 88.8184 181.601C100.614 167.778 112.448 153.989 124.261 140.182C124.658 139.719 124.984 139.195 125.434 138.562C124.807 138.373 124.447 138.236 124.081 138.163C105.345 134.441 86.6072 130.751 67.8792 126.971C66.2609 126.647 65.5395 127.354 64.7076 128.346C56.0423 138.65 47.3699 148.947 38.672 159.217C35.7952 162.616 32.8303 165.945 29.6058 169.652ZM29.1995 173.356C29.4867 174.215 29.6458 174.798 29.8739 175.36C36.6546 192.034 43.4534 208.695 50.2031 225.383C50.8504 226.988 51.8177 227.789 53.5159 228.201C68.8942 231.941 84.2615 235.766 99.632 239.559C102.217 240.198 104.803 240.814 107.699 241.518C107.423 240.64 107.298 240.139 107.117 239.659C100.559 222.664 93.9774 205.683 87.4702 188.673C86.8901 187.155 85.8974 186.777 84.5548 186.458C67.1286 182.335 49.7085 178.176 32.2868 174.034C31.3355 173.809 30.3774 173.614 29.2059 173.356L29.1995 173.356ZM160.235 146.81C166.95 165.459 173.494 183.637 180.239 202.371C191.695 187.901 202.811 173.863 214.192 159.492C196.063 155.232 178.365 151.071 160.235 146.81ZM115.026 106.54C108.328 89.1825 101.802 72.2731 95.104 54.9096L59.4516 95.888C78.0544 99.4538 96.3107 102.952 115.026 106.54ZM32.0767 255.973C39.043 274.296 45.8471 292.196 52.7666 310.408C63.6393 296.644 74.2193 283.251 84.986 269.623C67.2253 265.039 49.8966 260.567 32.0796 255.969L32.0767 255.973ZM4.5484 200.114C-7.2056 212.743 -18.6706 225.061 -30.4507 237.72C-11.5159 242.043 6.86255 246.239 25.6452 250.529C18.565 233.612 11.6419 217.066 4.5484 200.114ZM49.4221 97.7962C30.8569 93.1916 12.7801 88.7132 -5.78866 84.1055C0.760027 100.982 7.12189 117.385 13.6315 134.163C25.6597 121.943 37.3498 110.06 49.425 97.7929L49.4221 97.7962ZM179.605 210.421C169.02 224.184 158.756 237.535 148.246 251.206C165.699 254.925 182.779 258.565 200.256 262.287C193.302 244.824 186.558 227.878 179.611 210.42L179.605 210.421Z" fill="#FFC9F3" fill-opacity="0.15"/>
<path d="M1275.56 762.466C1278.21 754.292 1280.8 746.104 1283.55 737.96C1284.1 736.32 1283.76 735.254 1282.56 733.958C1270.1 720.592 1257.76 707.126 1245.25 693.806C1242.83 691.225 1242.39 688.933 1243.6 685.82C1246.56 678.137 1249.28 670.357 1251.89 662.547C1252.91 659.5 1254.72 657.987 1258.12 657.466C1276.67 654.627 1295.17 651.59 1313.7 648.692C1315.32 648.438 1316.09 647.822 1316.58 646.341C1321.91 630.08 1327.38 613.864 1332.67 597.59C1333.57 594.81 1335.19 593.246 1338.14 592.419C1346.28 590.122 1354.39 587.727 1362.42 585.12C1366.26 583.874 1369.05 584.598 1371.89 587.548C1384.42 600.558 1397.14 613.408 1409.71 626.373C1410.93 627.628 1412 627.885 1413.64 627.602C1431.52 624.515 1449.44 621.574 1467.3 618.404C1470.97 617.751 1473.38 618.606 1475.65 621.549C1480.54 627.89 1485.68 634.059 1490.83 640.22C1492.58 642.315 1492.9 644.336 1492.22 646.823C1487.42 664.136 1482.75 681.482 1477.98 698.8C1477.57 700.276 1477.84 701.265 1479 702.419C1491.9 715.302 1504.68 728.293 1517.65 741.116C1520.33 743.768 1521.05 746.187 1519.88 749.606C1517.14 757.595 1514.69 765.692 1512.3 773.793C1511.47 776.575 1509.82 777.97 1506.84 778.572C1489.01 782.181 1471.22 785.932 1453.4 789.566C1451.73 789.907 1450.93 790.58 1450.45 792.152C1445.42 808.438 1440.26 824.674 1435.26 840.969C1434.36 843.894 1432.73 845.43 1429.49 845.938C1420.48 847.346 1411.5 848.887 1402.56 850.585C1399.32 851.203 1397.04 850.442 1394.75 848.038C1381.83 834.479 1368.76 821.044 1355.81 807.51C1354.56 806.198 1353.44 805.882 1351.69 806.201C1333.48 809.517 1315.23 812.668 1297.04 816.075C1293.25 816.785 1290.68 815.933 1288.08 813.117C1282.08 806.593 1275.87 800.229 1269.56 793.96C1267.16 791.574 1266.75 789.305 1267.76 786.354C1270.47 778.429 1272.97 770.428 1275.56 762.457L1275.56 762.466ZM1354.77 797.931C1355.09 796.922 1355.32 796.281 1355.51 795.629C1357.66 788.124 1359.75 780.601 1361.98 773.118C1362.41 771.672 1362.04 770.783 1360.97 769.723C1348.24 757.188 1335.6 744.581 1322.83 732.086C1320.86 730.159 1320.4 728.446 1321.18 725.943C1326.44 708.995 1331.57 692.005 1336.66 675.005C1336.91 674.169 1336.68 672.836 1336.11 672.158C1331.31 666.478 1326.39 660.892 1321.48 655.293C1319.97 653.567 1319.21 653.622 1318.34 655.646C1317.14 658.449 1316.07 661.311 1314.96 664.153C1310.88 674.597 1306.82 685.046 1302.73 695.486C1301.62 698.327 1300.51 701.17 1299.25 703.951C1298.48 705.654 1297.2 705.785 1295.68 704.514C1295.28 704.178 1294.94 703.779 1294.57 703.407C1282.99 691.547 1271.41 679.689 1259.83 667.836C1259.33 667.326 1258.78 666.869 1258.08 666.236C1257.75 666.98 1257.49 667.464 1257.31 667.978C1255.01 674.396 1252.77 680.83 1250.41 687.221C1249.89 688.62 1250.18 689.53 1251.22 690.646C1263.72 704.071 1276.11 717.581 1288.68 730.947C1291.09 733.515 1291.55 735.852 1290.52 738.966C1285.2 755.005 1280.07 771.1 1274.81 787.157C1274.31 788.688 1274.46 789.719 1275.71 790.968C1281.03 796.315 1286.22 801.782 1291.46 807.198C1291.98 807.739 1292.56 808.232 1293.33 808.936C1299.21 792.733 1304.98 776.928 1310.7 761.113C1311.94 757.661 1312.99 757.405 1315.75 760.083C1325.95 769.975 1336.14 779.874 1346.34 789.766C1349.05 792.403 1351.78 795.033 1354.77 797.934L1354.77 797.931ZM1470.37 703.532C1469.38 703.665 1468.66 703.729 1467.95 703.866C1460.84 705.213 1453.74 706.631 1446.61 707.885C1445.04 708.162 1444.42 708.877 1443.98 710.224C1438.42 726.928 1432.76 743.601 1427.25 760.324C1426.49 762.601 1425.18 763.559 1422.74 763.942C1404.43 766.799 1386.15 769.792 1367.84 772.664C1366.18 772.927 1365.46 773.586 1365.05 775.078C1363.51 780.69 1361.81 786.258 1360.21 791.853C1359.58 794.063 1359.08 796.305 1358.44 798.805C1361.42 798.368 1364.07 797.986 1366.71 797.589C1381.87 795.322 1397.02 793.048 1412.18 790.786C1415.1 790.351 1416.17 791.254 1415.52 793.621C1411.23 809.37 1406.92 825.113 1402.63 840.861C1402.37 841.799 1402.21 842.767 1401.94 844.002C1403.03 843.835 1403.82 843.72 1404.61 843.589C1411.74 842.369 1418.86 841.075 1426.03 839.961C1427.93 839.665 1428.73 838.857 1429.25 837.147C1434.22 821.07 1439.35 805.047 1444.27 788.953C1445.23 785.791 1447 784.207 1450.43 783.517C1468.19 779.967 1485.9 776.207 1503.65 772.584C1505.15 772.278 1505.89 771.679 1506.3 770.264C1508.37 763.249 1510.56 756.273 1512.7 749.281C1512.86 748.768 1512.94 748.226 1513.13 747.396C1509.16 748.155 1505.44 748.865 1501.74 749.58C1488.04 752.223 1474.35 754.87 1460.65 757.503C1457.73 758.062 1456.6 757.184 1457.21 754.819C1460.44 742.314 1463.7 729.819 1466.93 717.312C1468.09 712.808 1469.18 708.285 1470.37 703.536L1470.37 703.532ZM1323.94 652.831C1324.66 653.723 1325.1 654.3 1325.58 654.849C1329.83 659.729 1334.14 664.573 1338.32 669.509C1339.39 670.786 1340.36 671.06 1341.98 670.718C1360.63 666.777 1379.33 662.97 1397.97 658.961C1400.81 658.353 1402.53 658.997 1404.44 661.079C1417.36 675.21 1430.42 689.232 1443.38 703.331C1444.44 704.48 1445.37 704.791 1446.89 704.482C1453.1 703.225 1459.34 702.104 1465.57 700.92C1466.28 700.787 1466.97 700.582 1467.89 700.356C1467.25 699.622 1466.78 699.068 1466.28 698.535C1453.8 685.105 1441.3 671.678 1428.81 658.248C1426.19 655.421 1426.55 654.349 1430.37 653.684C1442.58 651.573 1454.8 649.471 1467.01 647.369C1473.1 646.32 1479.19 645.274 1485.52 644.186C1484.91 643.389 1484.48 642.802 1484.02 642.237C1479.71 636.938 1475.34 631.676 1471.1 626.332C1470.07 625.035 1469.12 624.719 1467.48 625.003C1449.46 628.121 1431.41 631.103 1413.4 634.251C1410.31 634.789 1408.14 634.031 1405.97 631.796C1393.24 618.666 1380.39 605.647 1367.66 592.524C1366.41 591.23 1365.43 591.039 1363.79 591.561C1357.51 593.556 1351.17 595.394 1344.85 597.296C1344.09 597.524 1343.35 597.803 1342.39 598.128C1343.03 598.833 1343.5 599.381 1344.01 599.897C1355.93 612.145 1367.86 624.39 1379.78 636.642C1382.25 639.18 1381.92 640.367 1378.48 641.116C1370.26 642.903 1362.02 644.66 1353.79 646.427C1343.97 648.537 1334.14 650.651 1323.95 652.843L1323.94 652.831ZM1423.89 758.391C1424.18 757.766 1424.32 757.515 1424.41 757.249C1430.03 740.797 1435.62 724.337 1441.29 707.906C1441.76 706.544 1441.16 705.795 1440.32 704.887C1428.11 691.718 1415.92 678.531 1403.72 665.352C1403.14 664.72 1402.52 664.12 1401.77 663.358C1401.49 664.014 1401.29 664.385 1401.16 664.778C1395.68 681.876 1390.22 698.974 1384.7 716.058C1384.28 717.347 1384.64 718.152 1385.56 719.096C1394.13 727.839 1402.66 736.612 1411.2 745.377C1415.35 749.639 1419.51 753.893 1423.9 758.392L1423.89 758.391ZM1324.49 726.34C1325.75 726.215 1326.25 726.2 1326.74 726.116C1344.11 723.186 1361.47 720.231 1378.85 717.354C1380.65 717.056 1381.25 716.081 1381.71 714.622C1386.95 697.9 1392.24 681.194 1397.5 664.479C1397.68 663.919 1397.77 663.33 1397.93 662.598C1397.3 662.667 1396.93 662.681 1396.58 662.754C1378.49 666.514 1360.42 670.304 1342.32 674.009C1340.76 674.331 1340.38 675.231 1340.02 676.426C1336.23 688.843 1332.42 701.257 1328.59 713.655C1327.32 717.759 1325.95 721.833 1324.49 726.34ZM1325.53 729.782C1326.11 730.437 1326.48 730.895 1326.89 731.308C1339.26 743.557 1351.64 755.787 1363.99 768.06C1365.17 769.242 1366.34 769.588 1368.01 769.313C1383.11 766.836 1398.24 764.438 1413.35 762.01C1415.89 761.602 1418.43 761.174 1421.27 760.708C1420.69 760.031 1420.39 759.634 1420.05 759.276C1407.76 746.658 1395.45 734.061 1383.2 721.41C1382.1 720.281 1381.08 720.32 1379.76 720.543C1362.69 723.453 1345.61 726.329 1328.54 729.22C1327.6 729.379 1326.68 729.567 1325.54 729.78L1325.53 729.782ZM1432.03 656.8C1445.09 670.827 1457.82 684.501 1470.94 698.592C1475.63 681.424 1480.19 664.767 1484.85 647.715C1467.1 650.768 1449.78 653.747 1432.03 656.8ZM1376.5 638.088C1363.95 625.201 1351.72 612.647 1339.16 599.755L1323.01 649.586C1340.92 645.738 1358.49 641.96 1376.5 638.088ZM1359.48 802.058C1372.64 815.701 1385.5 829.031 1398.58 842.593C1403.02 826.271 1407.34 810.389 1411.74 794.228C1394.2 796.855 1377.08 799.418 1359.49 802.054L1359.48 802.058ZM1313.77 762.838C1308.11 778.484 1302.59 793.745 1296.92 809.428C1315.41 806.127 1333.35 802.923 1351.69 799.65C1338.97 787.298 1326.52 775.216 1313.77 762.838ZM1314.81 655.062C1296.55 657.974 1278.76 660.814 1260.49 663.724C1272.73 676.241 1284.62 688.407 1296.79 700.851C1302.85 685.464 1308.73 670.505 1314.81 655.058L1314.81 655.062ZM1473.43 705.98C1469.24 722.192 1465.19 737.918 1461.03 754.02C1477.97 750.741 1494.55 747.533 1511.51 744.248C1498.69 731.364 1486.25 718.859 1473.44 705.977L1473.43 705.98Z" fill="#FFC9F3" fill-opacity="0.15"/>
</g>
<defs>
<linearGradient id="paint0_linear_1_2" x1="720" y1="0" x2="720" y2="1024" gradientUnits="userSpaceOnUse">
<stop stop-color="#090E16"/>
<stop offset="1" stop-color="#1C3473"/>
</linearGradient>
<clipPath id="clip0_1_2">
<rect width="1440" height="1024" fill="white"/>
</clipPath>
</defs>
</svg>
