<svg width="395" height="1024" viewBox="0 0 395 1024" fill="none" xmlns="http://www.w3.org/2000/svg">
<g clip-path="url(#clip0_1_2)">
<rect width="395" height="1024" fill="url(#paint0_linear_1_2)"/>
<path d="M-56.0651 186.455C-53.1073 181.715 -50.1794 176.96 -47.1695 172.253C-46.5646 171.305 -46.5873 170.592 -47.0968 169.614C-52.3599 159.529 -57.5349 149.397 -62.8375 139.333C-63.8632 137.384 -63.7446 135.89 -62.5031 134.112C-59.4383 129.723 -56.5027 125.241 -53.6278 120.723C-52.5055 118.962 -51.1637 118.268 -49.0333 118.416C-37.4033 119.222 -25.7652 119.899 -14.1342 120.666C-13.116 120.733 -12.5533 120.454 -12.0119 119.597C-6.08804 110.179 -0.0969483 100.805 5.80556 91.3729C6.81153 89.7609 8.04466 89.0089 9.95533 88.9018C15.2373 88.5999 20.5177 88.2318 25.7825 87.7201C28.2993 87.4753 29.8556 88.3159 31.0729 90.5546C36.4416 100.428 41.9463 110.227 47.3483 120.079C47.8725 121.033 48.4729 121.343 49.5076 121.394C60.7782 121.953 72.0451 122.607 83.317 123.112C85.6392 123.216 86.9413 124.084 87.8156 126.239C89.699 130.882 91.7656 135.453 93.8351 140.019C94.5389 141.571 94.3947 142.879 93.5667 144.337C87.7915 154.489 82.0879 164.679 76.3284 174.837C75.8375 175.702 75.8366 176.358 76.3397 177.24C81.9503 187.085 87.4698 196.981 93.1305 206.799C94.3005 208.829 94.3313 210.441 93.057 212.415C90.077 217.026 87.2538 221.745 84.4611 226.474C83.5004 228.098 82.2736 228.739 80.3812 228.701C69.0538 228.476 57.7242 228.344 46.3967 228.135C45.3353 228.116 44.7435 228.425 44.1893 229.34C38.4492 238.818 32.6323 248.245 26.9064 257.731C25.8796 259.435 24.6419 260.168 22.6079 260.035C16.9543 259.66 11.2951 259.374 5.63412 259.192C3.57764 259.126 2.33378 258.333 1.35647 256.512C-4.15026 246.242 -9.77106 236.028 -15.3014 225.77C-15.8393 224.774 -16.4559 224.422 -17.5638 224.377C-29.07 223.916 -40.5737 223.346 -52.0841 222.944C-54.4845 222.86 -55.891 221.969 -56.9813 219.849C-59.5063 214.936 -62.1782 210.095 -64.9281 205.301C-65.9752 203.475 -65.842 202.001 -64.7425 200.297C-61.7861 195.723 -58.9514 191.069 -56.0645 186.449L-56.0651 186.455ZM-14.333 219.638C-13.9679 219.053 -13.7214 218.684 -13.5001 218.303C-10.9572 213.912 -8.4452 209.501 -5.85585 205.136C-5.35569 204.292 -5.42812 203.685 -5.89639 202.874C-11.4601 193.27 -16.9631 183.633 -22.5587 174.048C-23.4207 172.57 -23.4137 171.435 -22.5284 169.979C-16.5345 160.121 -10.6116 150.219 -4.71393 140.304C-4.42279 139.816 -4.33774 138.951 -4.5698 138.448C-6.50837 134.231 -8.53833 130.055 -10.5553 125.874C-11.1767 124.585 -11.6422 124.513 -12.5041 125.657C-13.6966 127.241 -14.8129 128.882 -15.9562 130.503C-20.1521 136.462 -24.3385 142.426 -28.5416 148.38C-29.6848 150.001 -30.8258 151.624 -32.0476 153.186C-32.796 154.143 -33.5886 154.046 -34.2885 153.042C-34.4746 152.775 -34.6153 152.478 -34.7711 152.195C-39.7591 143.173 -44.7448 134.152 -49.7382 125.133C-49.9508 124.745 -50.2083 124.382 -50.5203 123.89C-50.844 124.309 -51.0823 124.575 -51.2771 124.871C-53.7286 128.562 -56.1516 132.27 -58.6395 135.935C-59.186 136.737 -59.1614 137.347 -58.7222 138.189C-53.443 148.317 -48.2436 158.483 -42.9143 168.584C-41.8927 170.524 -42.0017 172.05 -43.1427 173.852C-49.0178 183.134 -54.7896 192.478 -60.6339 201.78C-61.1905 202.667 -61.27 203.332 -60.7296 204.287C-58.423 208.367 -56.2118 212.506 -53.9621 216.62C-53.7378 217.031 -53.4702 217.42 -53.1293 217.966C-46.8839 208.66 -40.7798 199.585 -34.7009 190.498C-33.3743 188.515 -32.7006 188.501 -31.4856 190.559C-27.0028 198.159 -22.5253 205.763 -18.0425 213.363C-16.8472 215.389 -15.6465 217.411 -14.3283 219.641L-14.333 219.638ZM70.9623 176.735C70.3474 176.681 69.8984 176.619 69.4487 176.606C64.9479 176.459 60.4439 176.358 55.9449 176.149C54.9498 176.103 54.4611 176.464 53.968 177.244C47.8376 186.909 41.6527 196.54 35.5446 206.223C34.7119 207.541 33.7611 207.957 32.2299 207.857C20.7375 207.094 9.24181 206.421 -2.25034 205.668C-3.29484 205.601 -3.83548 205.913 -4.33225 206.789C-6.19885 210.08 -8.14986 213.323 -10.0449 216.597C-10.7927 217.89 -11.4688 219.222 -12.2668 220.696C-10.4026 220.837 -8.74516 220.967 -7.0881 221.087C2.40726 221.779 11.9017 222.467 21.398 223.162C23.2241 223.296 23.7176 224.009 22.936 225.399C17.7268 234.643 12.5082 243.881 7.29662 253.124C6.98597 253.675 6.72509 254.257 6.35884 254.991C7.0408 255.038 7.53693 255.077 8.03035 255.104C12.5287 255.335 17.0276 255.517 21.5221 255.818C22.717 255.897 23.3314 255.504 23.9331 254.508C29.6032 245.153 35.3633 235.854 41.005 226.481C42.1145 224.64 43.4445 223.896 45.6217 223.942C56.899 224.195 68.18 224.31 79.4603 224.516C80.4142 224.533 80.9562 224.261 81.4423 223.434C83.8568 219.338 86.3376 215.284 88.7924 211.213C88.9724 210.914 89.1136 210.587 89.3652 210.094C86.849 210.016 84.4977 209.943 82.1473 209.874C73.4686 209.62 64.7884 209.368 56.1102 209.108C54.262 209.052 53.7254 208.345 54.486 206.952C58.5158 199.587 62.5646 192.233 66.5921 184.867C68.0436 182.214 69.4557 179.539 70.9608 176.737L70.9623 176.735ZM-8.6631 124.678C-8.37865 125.335 -8.21046 125.757 -8.01486 126.166C-6.27056 129.808 -4.48972 133.433 -2.80025 137.1C-2.36446 138.048 -1.82755 138.353 -0.800444 138.364C11.0812 138.498 22.9636 138.72 34.8468 138.809C36.6549 138.824 37.5844 139.466 38.3822 141.032C43.7998 151.661 49.3147 162.24 54.7613 172.854C55.2059 173.719 55.7148 174.043 56.6811 174.062C60.626 174.14 64.5678 174.308 68.5121 174.435C68.9603 174.45 69.4115 174.419 70.0025 174.405C69.7357 173.857 69.5478 173.446 69.3377 173.044C64.0661 162.914 58.7907 152.785 53.5192 142.655C52.4099 140.523 52.8095 139.904 55.2195 140.02C62.9175 140.4 70.6149 140.786 78.3124 141.172C82.1506 141.363 85.9874 141.557 89.9775 141.758C89.745 141.175 89.5836 140.748 89.4025 140.332C87.6915 136.42 85.944 132.525 84.2812 128.594C83.8784 127.641 83.36 127.311 82.3277 127.261C70.9682 126.702 59.6118 126.054 48.2529 125.515C46.3029 125.421 45.1214 124.645 44.1893 122.947C38.7258 112.971 33.1675 103.048 27.6987 93.0755C27.1597 92.0926 26.6044 91.8375 25.5323 91.9357C21.4209 92.3086 17.3006 92.5746 13.1825 92.8845C12.6858 92.9206 12.1934 92.9921 11.561 93.0611C11.8296 93.5911 12.0228 93.999 12.2387 94.3916C17.3681 103.705 22.4989 113.015 27.6268 122.331C28.6882 124.26 28.2905 124.955 26.0975 124.945C20.8531 124.918 15.608 124.87 10.3623 124.829C4.10046 124.781 -2.16285 124.735 -8.65892 124.687L-8.6631 124.678ZM33.8501 204.548C34.125 204.197 34.2503 204.06 34.3494 203.906C40.4746 194.408 46.5856 184.9 52.7378 175.421C53.2477 174.636 53.0125 174.084 52.6591 173.4C47.5119 163.472 42.3768 153.535 37.2387 143.603C36.9929 143.126 36.7205 142.666 36.3978 142.085C36.1173 142.456 35.9372 142.66 35.7949 142.888C29.6462 152.809 23.5084 162.735 17.3359 172.641C16.8696 173.389 16.9495 173.941 17.3473 174.66C21.0434 181.315 24.7083 187.984 28.3846 194.65C30.1717 197.891 31.9641 201.128 33.8525 204.55L33.8501 204.548ZM-20.6032 170.688C-19.8244 170.785 -19.5169 170.847 -19.2102 170.862C-8.27266 171.448 2.66275 172.016 13.5984 172.637C14.7333 172.702 15.2558 172.176 15.7752 171.328C21.7189 161.608 27.6887 151.905 33.6443 142.192C33.8443 141.866 33.9969 141.511 34.2156 141.076C33.8252 141.032 33.5988 140.988 33.3737 140.985C21.8682 140.818 10.3634 140.672 -1.14255 140.469C-2.1366 140.452 -2.51123 140.963 -2.92905 141.659C-7.28352 148.89 -11.6427 156.118 -16.0194 163.332C-17.4668 165.72 -18.9725 168.075 -20.6032 170.688ZM-20.5483 172.985C-20.3074 173.475 -20.1653 173.811 -19.9837 174.127C-14.587 183.503 -9.18063 192.868 -3.80131 202.255C-3.28507 203.158 -2.6421 203.537 -1.59321 203.597C7.90597 204.151 17.4054 204.757 26.9041 205.343C28.5017 205.442 30.0981 205.527 31.8868 205.631C31.6509 205.128 31.5359 204.838 31.389 204.567C26.1001 194.971 20.7976 185.387 15.5375 175.777C15.0684 174.919 14.4443 174.801 13.6156 174.757C2.86068 174.2 -7.89342 173.621 -18.6472 173.051C-19.2342 173.021 -19.823 173.01 -20.5444 172.984L-20.5483 172.985ZM55.6947 142.197C61.2105 152.78 66.5866 163.096 72.128 173.727C77.8162 163.652 83.3367 153.877 88.9885 143.87C77.802 143.309 66.8812 142.759 55.6947 142.197ZM25.4146 122.779C20.0128 112.979 14.7494 103.432 9.3467 93.6284L-8.68308 122.52C2.73078 122.607 13.9319 122.691 25.4146 122.779ZM-12.1835 222.873C-6.54317 233.23 -1.03387 243.348 4.56956 253.643C9.96599 244.061 15.2174 234.739 20.5613 225.252C9.56936 224.452 -1.1552 223.673 -12.182 222.871L-12.1835 222.873ZM-33.1413 192.004C-39.1562 200.993 -45.0233 209.762 -51.0515 218.773C-39.3781 219.283 -28.0478 219.777 -16.4682 220.284C-22.0636 210.795 -27.5352 201.513 -33.1413 192.004ZM-14.5286 124.802C-26.0035 124.079 -37.1761 123.379 -48.6534 122.656C-43.3792 132.18 -38.2548 141.437 -33.0119 150.906C-26.8001 142.134 -20.7633 133.605 -14.5272 124.799L-14.5286 124.802ZM72.3957 178.69C67.1713 188.239 62.1058 197.501 56.9186 206.984C67.6573 207.293 78.1662 207.595 88.9188 207.903C83.3549 198.067 77.9587 188.522 72.3995 178.689L72.3957 178.69Z" fill="white" fill-opacity="0.15"/>
<path d="M12.8822 464.757C14.3076 462.473 15.7188 460.182 17.1687 457.913C17.4601 457.456 17.4526 457.115 17.2154 456.649C14.7648 451.842 12.3562 447.013 9.8867 442.217C9.40902 441.288 9.47218 440.572 10.0695 439.714C11.544 437.598 12.9576 435.437 14.3426 433.26C14.8833 432.411 15.5231 432.072 16.5333 432.133C22.0479 432.465 27.5668 432.736 33.082 433.05C33.5648 433.077 33.8331 432.941 34.094 432.528C36.9483 427.989 39.8343 423.471 42.6786 418.926C43.1633 418.149 43.7519 417.783 44.659 417.723C47.1666 417.554 49.6738 417.353 52.1742 417.084C53.3695 416.955 54.1041 417.35 54.6713 418.417C57.1731 423.122 59.7396 427.79 62.2573 432.484C62.5016 432.939 62.785 433.084 63.2757 433.104C68.6209 433.32 73.9639 433.581 79.3099 433.771C80.4112 433.81 81.025 434.219 81.4299 435.248C82.3021 437.463 83.2615 439.643 84.2224 441.821C84.5491 442.561 84.4746 443.188 84.075 443.891C81.2878 448.78 78.5345 453.687 75.7547 458.58C75.5178 458.997 75.5143 459.311 75.749 459.731C78.3656 464.421 80.9387 469.136 83.5793 473.812C84.125 474.779 84.1322 475.551 83.5184 476.503C82.0831 478.725 80.7218 480.999 79.3748 483.277C78.9114 484.059 78.3264 484.372 77.4286 484.363C72.055 484.307 66.6799 484.296 61.3061 484.248C60.8026 484.244 60.5203 484.395 60.2532 484.836C57.4857 489.402 54.6821 493.945 51.9214 498.516C51.4263 499.336 50.8357 499.693 49.8712 499.639C47.1903 499.486 44.5065 499.375 41.8213 499.313C40.8458 499.291 40.2593 498.918 39.804 498.05C37.2386 493.156 34.6188 488.289 32.0422 483.401C31.7916 482.926 31.5006 482.761 30.9752 482.744C25.5178 482.577 20.0621 482.357 14.6024 482.217C13.4638 482.188 12.8006 481.768 12.2931 480.757C11.1177 478.416 9.87232 476.109 8.58969 473.825C8.10133 472.956 8.17131 472.249 8.70088 471.428C10.1248 469.223 11.4914 466.981 12.8825 464.754L12.8822 464.757ZM32.53 480.459C32.706 480.177 32.8246 480 32.9314 479.816C34.1583 477.701 35.3706 475.576 36.6194 473.473C36.8606 473.067 36.829 472.777 36.6106 472.39C34.0151 467.815 31.4486 463.224 28.8379 458.659C28.4357 457.955 28.4443 457.411 28.8711 456.71C31.7607 451.96 34.6168 447.189 37.461 442.413C37.6014 442.178 37.6457 441.763 37.5379 441.523C36.6376 439.512 35.6937 437.521 34.756 435.528C34.4672 434.913 34.2466 434.881 33.8324 435.433C33.2593 436.197 32.722 436.988 32.172 437.77C30.1536 440.644 28.1396 443.52 26.1178 446.392C25.5678 447.174 25.019 447.956 24.432 448.71C24.0725 449.172 23.6968 449.129 23.3694 448.651C23.2823 448.524 23.2169 448.383 23.1443 448.248C20.8193 443.949 18.4953 439.651 16.1678 435.354C16.0687 435.169 15.9482 434.997 15.8024 434.762C15.6469 434.964 15.5326 435.093 15.4388 435.236C14.2585 437.015 13.0917 438.803 11.8943 440.57C11.6313 440.956 11.6401 441.248 11.8446 441.649C14.3027 446.477 16.7227 451.322 19.2047 456.136C19.6804 457.061 19.6217 457.792 19.072 458.66C16.2414 463.134 13.4596 467.636 10.6435 472.119C10.3753 472.546 10.3345 472.866 10.5865 473.32C11.6621 475.264 12.6921 477.237 13.7406 479.197C13.8451 479.393 13.9703 479.578 14.1295 479.838C17.1359 475.351 20.0742 470.976 23.0005 466.595C23.6391 465.639 23.9589 465.629 24.5258 466.609C26.6177 470.229 28.7071 473.851 30.799 477.47C31.3568 478.435 31.9171 479.399 32.5323 480.461L32.53 480.459ZM73.1998 459.514C72.9082 459.491 72.6955 459.463 72.4822 459.459C70.3473 459.409 68.2107 459.382 66.0769 459.303C65.605 459.285 65.3714 459.46 65.1339 459.836C62.1804 464.494 59.2012 469.136 56.2582 473.803C55.857 474.438 55.404 474.641 54.6779 474.601C49.2285 474.288 43.7771 474.019 38.3277 473.712C37.8324 473.684 37.5744 473.836 37.3347 474.258C36.4338 475.843 35.493 477.406 34.5787 478.983C34.218 479.606 33.891 480.246 33.5055 480.956C34.3894 481.015 35.1752 481.07 35.9609 481.12C40.4631 481.407 44.9649 481.693 49.4676 481.982C50.3334 482.038 50.5643 482.377 50.187 483.046C47.6726 487.498 45.1537 491.948 42.6381 496.399C42.4882 496.665 42.3617 496.944 42.1845 497.298C42.5079 497.317 42.7431 497.333 42.9771 497.344C45.1104 497.434 47.2443 497.501 49.3755 497.624C49.9421 497.656 50.2354 497.465 50.5255 496.985C53.2591 492.478 56.0352 487.997 58.7554 483.481C59.2904 482.594 59.9249 482.232 60.9578 482.244C66.3075 482.313 71.6597 482.315 77.011 482.362C77.4636 482.366 77.722 482.233 77.9564 481.835C79.121 479.862 80.3169 477.908 81.5005 475.947C81.5873 475.802 81.6558 475.645 81.7774 475.408C80.5839 475.382 79.4686 475.358 78.3537 475.336C74.2369 475.254 70.1194 475.174 66.003 475.09C65.1263 475.071 64.875 474.735 65.2423 474.064C67.1884 470.518 69.1435 466.977 71.0886 463.429C71.7895 462.152 72.4719 460.864 73.1991 459.515L73.1998 459.514ZM35.6594 434.946C35.7913 435.26 35.8692 435.461 35.9601 435.656C36.7709 437.393 37.5991 439.121 38.3838 440.869C38.5862 441.321 38.8395 441.465 39.3268 441.466C44.9639 441.475 50.6009 441.526 56.2389 441.514C57.0967 441.513 57.5348 441.816 57.9061 442.562C60.4275 447.629 62.9954 452.671 65.5306 457.73C65.7375 458.142 65.9775 458.295 66.4359 458.299C68.3074 458.319 70.1769 458.381 72.0478 458.424C72.2604 458.429 72.4747 458.411 72.7551 458.402C72.6311 458.141 72.5438 457.945 72.446 457.753C69.9916 452.925 67.5353 448.098 65.0809 443.27C64.5644 442.254 64.7568 441.955 65.8998 442C69.5506 442.146 73.2012 442.295 76.8517 442.445C78.672 442.519 80.4916 442.594 82.3839 442.672C82.2763 442.394 82.2017 442.19 82.1177 441.991C81.324 440.125 80.5128 438.267 79.742 436.392C79.5553 435.938 79.3108 435.782 78.8213 435.763C73.4339 435.548 68.0485 435.29 62.6613 435.084C61.7365 435.048 61.1795 434.682 60.7451 433.872C58.1989 429.119 55.6074 424.392 53.0587 419.64C52.8074 419.172 52.5451 419.052 52.036 419.104C50.0835 419.302 48.1272 419.448 46.1718 419.616C45.936 419.635 45.702 419.672 45.4017 419.708C45.5266 419.961 45.6164 420.155 45.717 420.342C48.1078 424.779 50.4993 429.216 52.8893 433.654C53.384 434.573 53.1921 434.908 52.1516 434.913C49.6633 434.925 47.1748 434.926 44.686 434.931C41.715 434.936 38.7434 434.943 35.6613 434.95L35.6594 434.946ZM55.462 473.008C55.5941 472.839 55.6541 472.773 55.7019 472.699C58.6521 468.12 61.5957 463.538 64.5586 458.969C64.8042 458.59 64.6951 458.327 64.5306 458.001C62.1342 453.269 59.7436 448.533 57.3516 443.799C57.2372 443.572 57.1101 443.353 56.9596 443.076C56.8249 443.255 56.7384 443.353 56.6699 443.463C53.7065 448.244 50.7483 453.027 47.7738 457.801C47.5491 458.161 47.5844 458.425 47.7699 458.768C49.4928 461.939 51.2009 465.116 52.9145 468.292C53.7474 469.836 54.5829 471.379 55.4631 473.009L55.462 473.008ZM29.7813 457.041C30.1504 457.084 30.296 457.112 30.4414 457.117C35.6284 457.348 40.8145 457.569 46.0004 457.816C46.5386 457.842 46.789 457.588 47.0393 457.179C49.9045 452.496 52.7819 447.82 55.6527 443.14C55.7491 442.983 55.8231 442.812 55.9289 442.603C55.7439 442.583 55.6366 442.564 55.5298 442.563C50.0714 442.536 44.6132 442.519 39.1548 442.475C38.6832 442.472 38.5031 442.718 38.3016 443.054C36.202 446.538 34.1002 450.02 31.9902 453.496C31.2924 454.646 30.5671 455.781 29.7813 457.041ZM29.7967 458.141C29.9087 458.374 29.9746 458.535 30.0593 458.685C32.5766 463.151 35.0985 467.612 37.6075 472.084C37.8483 472.514 38.1516 472.692 38.6491 472.717C43.1537 472.938 47.6582 473.184 52.1625 473.421C52.9201 473.461 53.6772 473.495 54.5254 473.536C54.4158 473.296 54.3626 473.158 54.2942 473.028C51.829 468.457 49.3573 463.89 46.9059 459.311C46.6873 458.902 46.3918 458.849 45.9987 458.831C40.8983 458.614 35.7983 458.387 30.6984 458.164C30.42 458.152 30.1407 458.149 29.7985 458.14L29.7967 458.141ZM66.1152 443.04C68.6835 448.084 71.1866 453.001 73.7668 458.068C76.5123 453.215 79.1769 448.507 81.9049 443.688C76.5997 443.471 71.4205 443.258 66.1152 443.04ZM51.8376 433.879C49.3198 429.21 46.8665 424.661 44.3484 419.99L35.6599 433.913C41.0752 433.901 46.3896 433.89 51.8376 433.879ZM33.535 481.999C36.1633 486.934 38.7306 491.755 41.3418 496.66C43.9466 492.046 46.4814 487.556 49.0609 482.987C43.8491 482.655 38.7641 482.331 33.5357 481.998L33.535 481.999ZM23.7336 467.309C20.838 471.643 18.0136 475.87 15.1117 480.214C20.6481 480.405 26.0219 480.589 31.5139 480.779C28.9029 476.259 26.3496 471.838 23.7336 467.309ZM32.8757 435.033C27.4344 434.74 22.1364 434.456 16.694 434.162C19.1524 438.7 21.5411 443.111 23.985 447.622C26.9729 443.392 29.8768 439.278 32.8764 435.031L32.8757 435.033ZM73.8709 460.444C71.3478 465.042 68.9015 469.502 66.3964 474.068C71.4903 474.167 76.4752 474.263 81.5758 474.36C78.9813 469.675 76.4649 465.128 73.8727 460.443L73.8709 460.444Z" fill="white" fill-opacity="0.15"/>
<path d="M325.094 762.542C326.76 759.873 328.409 757.194 330.105 754.544C330.446 754.01 330.427 753.604 330.125 753.045C327.01 747.27 323.946 741.47 320.808 735.707C320.201 734.591 320.257 733.744 320.958 732.743C322.689 730.274 324.344 727.75 325.964 725.206C326.597 724.214 327.364 723.831 328.593 723.932C335.302 724.485 342.014 724.964 348.723 725.495C349.31 725.541 349.632 725.387 349.937 724.905C353.274 719.6 356.65 714.321 359.975 709.009C360.542 708.101 361.246 707.684 362.346 707.638C365.388 707.51 368.428 707.344 371.457 707.096C372.906 706.977 373.81 707.467 374.529 708.749C377.703 714.405 380.955 720.018 384.148 725.661C384.458 726.207 384.807 726.388 385.403 726.426C391.903 726.835 398.401 727.299 404.901 727.677C406.24 727.755 406.997 728.259 407.518 729.491C408.641 732.144 409.869 734.759 411.099 737.371C411.517 738.259 411.445 739.001 410.98 739.823C407.734 745.545 404.53 751.29 401.294 757.016C401.018 757.504 401.023 757.877 401.32 758.382C404.633 764.023 407.894 769.692 411.236 775.317C411.927 776.48 411.958 777.397 411.239 778.508C409.56 781.105 407.971 783.764 406.4 786.428C405.86 787.343 405.158 787.698 404.067 787.661C397.538 787.441 391.008 787.274 384.478 787.063C383.867 787.043 383.528 787.214 383.216 787.73C379.985 793.069 376.71 798.379 373.487 803.724C372.91 804.684 372.202 805.091 371.029 804.998C367.768 804.74 364.504 804.531 361.241 804.381C360.055 804.327 359.332 803.867 358.754 802.824C355.497 796.942 352.175 791.092 348.905 785.217C348.586 784.647 348.228 784.442 347.589 784.407C340.955 784.052 334.321 783.634 327.685 783.312C326.301 783.245 325.483 782.727 324.838 781.513C323.343 778.701 321.763 775.928 320.14 773.181C319.522 772.135 319.586 771.298 320.206 770.338C321.873 767.763 323.468 765.141 325.094 762.539L325.094 762.542ZM349.413 781.74C349.618 781.411 349.757 781.203 349.882 780.988C351.312 778.513 352.723 776.027 354.18 773.567C354.461 773.092 354.415 772.746 354.138 772.281C350.854 766.778 347.604 761.256 344.302 755.764C343.793 754.917 343.788 754.272 344.286 753.452C347.66 747.898 350.993 742.318 354.311 736.731C354.475 736.457 354.517 735.966 354.379 735.678C353.227 733.266 352.024 730.876 350.827 728.483C350.459 727.746 350.19 727.701 349.703 728.344C349.028 729.235 348.398 730.158 347.753 731.07C345.383 734.423 343.019 737.778 340.645 741.128C340 742.04 339.355 742.953 338.664 743.831C338.241 744.368 337.783 744.307 337.372 743.73C337.262 743.577 337.179 743.408 337.087 743.245C334.139 738.077 331.192 732.91 328.241 727.744C328.116 727.522 327.964 727.313 327.781 727.031C327.598 727.266 327.462 727.415 327.353 727.582C325.97 729.66 324.604 731.748 323.2 733.811C322.891 734.262 322.911 734.608 323.17 735.091C326.295 740.889 329.374 746.709 332.527 752.493C333.132 753.604 333.081 754.47 332.438 755.485C329.128 760.713 325.878 765.976 322.586 771.215C322.272 771.714 322.232 772.092 322.551 772.638C323.913 774.976 325.221 777.347 326.551 779.703C326.684 779.938 326.841 780.161 327.042 780.474C330.565 775.236 334.009 770.129 337.438 765.014C338.187 763.898 338.575 763.895 339.292 765.074C341.937 769.43 344.579 773.788 347.224 778.144C347.929 779.305 348.638 780.464 349.415 781.742L349.413 781.74ZM398.217 758.051C397.862 758.015 397.603 757.977 397.344 757.966C394.749 757.845 392.152 757.751 389.558 757.596C388.984 757.562 388.706 757.763 388.428 758.202C384.974 763.645 381.488 769.069 378.047 774.522C377.577 775.264 377.033 775.493 376.15 775.423C369.521 774.896 362.891 774.42 356.262 773.899C355.66 773.852 355.351 774.026 355.071 774.519C354.022 776.375 352.925 778.201 351.859 780.047C351.439 780.776 351.06 781.527 350.612 782.358C351.687 782.454 352.644 782.541 353.6 782.622C359.077 783.093 364.554 783.561 370.032 784.033C371.085 784.124 371.376 784.533 370.937 785.317C368.01 790.528 365.078 795.736 362.149 800.947C361.975 801.257 361.829 801.585 361.624 802C362.018 802.032 362.304 802.058 362.588 802.078C365.182 802.245 367.777 802.386 370.369 802.593C371.058 802.648 371.409 802.429 371.748 801.868C374.939 796.598 378.183 791.36 381.358 786.079C381.982 785.042 382.743 784.63 383.998 784.674C390.498 784.909 397 785.066 403.502 785.275C404.052 785.292 404.362 785.142 404.636 784.676C405.994 782.368 407.391 780.084 408.772 777.79C408.873 777.622 408.952 777.437 409.093 777.159C407.642 777.095 406.287 777.034 404.932 776.975C399.929 776.761 394.924 776.547 389.921 776.329C388.856 776.282 388.541 775.875 388.968 775.09C391.23 770.937 393.504 766.791 395.765 762.637C396.579 761.141 397.371 759.633 398.216 758.052L398.217 758.051ZM351.908 727.819C352.077 728.195 352.178 728.436 352.294 728.67C353.328 730.754 354.384 732.829 355.388 734.926C355.646 735.468 355.958 735.647 356.55 735.661C363.398 735.834 370.248 736.057 377.096 736.204C378.138 736.227 378.679 736.6 379.152 737.496C382.36 743.58 385.624 749.637 388.849 755.714C389.112 756.209 389.408 756.398 389.965 756.416C392.239 756.493 394.512 756.62 396.786 756.724C397.045 756.737 397.304 756.722 397.645 756.719C397.487 756.406 397.375 756.17 397.251 755.94C394.13 750.14 391.008 744.341 387.888 738.541C387.231 737.321 387.457 736.972 388.846 737.058C393.285 737.336 397.724 737.618 402.163 737.9C404.377 738.04 406.589 738.181 408.89 738.328C408.752 737.995 408.655 737.751 408.547 737.513C407.53 735.276 406.491 733.048 405.501 730.801C405.261 730.256 404.959 730.064 404.364 730.027C397.813 729.617 391.264 729.156 384.714 728.758C383.589 728.689 382.902 728.238 382.351 727.265C379.122 721.551 375.838 715.866 372.605 710.155C372.287 709.592 371.965 709.442 371.348 709.489C368.981 709.668 366.609 709.786 364.238 709.928C363.953 709.945 363.669 709.981 363.306 710.015C363.465 710.319 363.579 710.552 363.707 710.777C366.738 716.111 369.771 721.445 372.802 726.78C373.429 727.885 373.205 728.277 371.942 728.254C368.919 728.195 365.896 728.126 362.873 728.06C359.264 727.981 355.654 727.904 351.911 727.824L351.908 727.819ZM377.056 773.556C377.212 773.359 377.283 773.282 377.339 773.195C380.791 767.847 384.236 762.493 387.704 757.156C387.991 756.714 387.851 756.399 387.642 756.007C384.595 750.323 381.555 744.634 378.514 738.948C378.368 738.675 378.207 738.411 378.017 738.078C377.858 738.286 377.756 738.401 377.676 738.53C374.213 744.118 370.757 749.709 367.28 755.289C367.018 755.71 367.068 756.024 367.303 756.436C369.487 760.248 371.654 764.068 373.826 767.886C374.883 769.743 375.942 771.597 377.058 773.557L377.056 773.556ZM345.401 753.87C345.851 753.932 346.029 753.969 346.206 753.98C352.513 754.402 358.82 754.814 365.127 755.256C365.781 755.302 366.078 755.007 366.37 754.53C369.716 749.054 373.078 743.588 376.431 738.117C376.543 737.933 376.629 737.732 376.751 737.487C376.526 737.459 376.395 737.432 376.265 737.428C369.633 737.24 363.002 737.063 356.37 736.854C355.797 736.837 355.586 737.124 355.35 737.516C352.9 741.59 350.447 745.663 347.983 749.727C347.168 751.072 346.32 752.398 345.401 753.87ZM345.452 755.176C345.595 755.456 345.679 755.649 345.786 755.83C348.973 761.202 352.164 766.568 355.34 771.947C355.645 772.464 356.019 772.685 356.624 772.727C362.102 773.119 367.582 773.541 373.06 773.951C373.982 774.021 374.902 774.082 375.934 774.156C375.794 773.868 375.725 773.702 375.638 773.547C372.512 768.05 369.379 762.56 366.27 757.056C365.992 756.565 365.632 756.492 365.154 756.461C358.951 756.057 352.75 755.64 346.548 755.229C346.209 755.207 345.87 755.196 345.454 755.175L345.452 755.176ZM389.138 738.299C392.402 744.358 395.584 750.264 398.864 756.351C402.06 750.672 405.162 745.161 408.338 739.52C401.887 739.11 395.589 738.709 389.138 738.299ZM371.531 727.017C368.338 721.404 365.227 715.935 362.034 710.32L351.879 726.593C358.457 726.735 364.913 726.874 371.531 727.017ZM350.678 783.596C354.012 789.528 357.269 795.323 360.582 801.219C363.614 795.818 366.564 790.562 369.567 785.214C363.226 784.67 357.039 784.14 350.679 783.595L350.678 783.596ZM338.349 765.882C334.956 770.942 331.647 775.878 328.246 780.95C334.977 781.334 341.51 781.708 348.188 782.09C344.886 776.651 341.657 771.332 338.349 765.882ZM348.529 727.842C341.91 727.338 335.466 726.849 328.846 726.345C331.963 731.8 334.992 737.103 338.09 742.527C341.598 737.592 345.008 732.794 348.53 727.84L348.529 727.842ZM399.059 759.174C396.126 764.558 393.282 769.781 390.37 775.128C396.561 775.391 402.619 775.648 408.818 775.91C405.532 770.275 402.344 764.807 399.061 759.174L399.059 759.174Z" fill="white" fill-opacity="0.15"/>
<path d="M21.1284 908.912C21.9039 907.669 22.672 906.423 23.4605 905.188C23.6189 904.939 23.6177 904.755 23.4953 904.506C22.2309 901.934 20.989 899.349 19.7145 896.782C19.4679 896.285 19.5071 895.899 19.8314 895.432C20.6317 894.279 21.4 893.103 22.1532 891.918C22.4472 891.456 22.79 891.268 23.3263 891.293C26.2544 891.429 29.1852 891.531 32.1137 891.657C32.3701 891.668 32.5137 891.592 32.6556 891.368C34.2084 888.898 35.7778 886.439 37.3252 883.966C37.589 883.543 37.9047 883.341 38.3872 883.302C39.7212 883.191 41.0552 883.063 42.3862 882.898C43.0224 882.819 43.4097 883.026 43.7027 883.597C44.9951 886.114 46.3222 888.611 47.6231 891.122C47.7493 891.365 47.8988 891.441 48.1594 891.448C50.9984 891.522 53.8358 891.621 56.6754 891.68C57.2604 891.693 57.5833 891.909 57.7904 892.46C58.2364 893.648 58.7291 894.815 59.2225 895.982C59.3903 896.379 59.3458 896.717 59.1279 897.099C57.608 899.757 56.106 902.425 54.5901 905.085C54.4609 905.311 54.4566 905.481 54.578 905.705C55.9315 908.213 57.2618 910.735 58.6281 913.236C58.9105 913.753 58.9082 914.169 58.5746 914.687C57.7942 915.897 57.0528 917.133 56.319 918.372C56.0666 918.797 55.7532 918.971 55.2761 918.973C52.4208 918.985 49.5644 919.022 46.7089 919.038C46.4413 919.04 46.2902 919.124 46.1447 919.364C44.6379 921.847 43.1121 924.319 41.6089 926.805C41.3393 927.251 41.0226 927.448 40.5104 927.427C39.0869 927.365 37.6615 927.327 36.2349 927.315C35.7167 927.311 35.408 927.114 35.1728 926.649C33.8481 924.031 32.4943 921.428 31.1636 918.812C31.0342 918.559 30.8809 918.472 30.6017 918.467C27.7028 918.42 24.8051 918.344 21.9047 918.312C21.2999 918.305 20.9507 918.084 20.689 917.543C20.0828 916.29 19.4392 915.056 18.7756 913.835C18.5229 913.37 18.5657 912.988 18.8536 912.541C19.6278 911.341 20.3717 910.122 21.1286 908.91L21.1284 908.912ZM31.4461 917.223C31.5418 917.069 31.6063 916.973 31.6645 916.873C32.3332 915.723 32.9942 914.568 33.6745 913.424C33.8059 913.203 33.7914 913.046 33.6784 912.84C32.3351 910.394 31.0074 907.939 29.656 905.498C29.4479 905.122 29.4567 904.828 29.6891 904.447C31.2622 901.863 32.8177 899.268 34.367 896.67C34.4434 896.543 34.4703 896.319 34.4149 896.19C33.9523 895.113 33.4664 894.047 32.9838 892.98C32.8352 892.651 32.7182 892.635 32.4937 892.936C32.1831 893.352 31.8913 893.783 31.5929 894.209C30.4975 895.774 29.4045 897.341 28.3073 898.905C28.0089 899.331 27.711 899.757 27.3931 900.169C27.1984 900.42 26.9991 900.4 26.8289 900.145C26.7836 900.078 26.75 900.002 26.7125 899.93C25.5108 897.63 24.3097 895.331 23.1066 893.033C23.0554 892.934 22.9928 892.842 22.9171 892.717C22.8329 892.827 22.7711 892.897 22.7202 892.975C22.0789 893.943 21.4447 894.916 20.7944 895.879C20.6515 896.089 20.6539 896.246 20.7594 896.461C22.0277 899.044 23.2755 901.638 24.5565 904.214C24.802 904.708 24.765 905.103 24.466 905.576C22.9264 908.01 21.4125 910.46 19.8806 912.899C19.7346 913.131 19.7105 913.304 19.8408 913.547C20.397 914.587 20.9289 915.642 21.4706 916.69C21.5246 916.795 21.5896 916.894 21.6722 917.033C23.3054 914.59 24.9014 912.208 26.4912 909.823C26.8381 909.302 27.0081 909.295 27.3017 909.818C28.3848 911.754 29.4666 913.69 30.5497 915.625C30.8385 916.141 31.1287 916.656 31.4472 917.223L31.4461 917.223ZM53.225 905.608C53.0702 905.598 52.9574 905.585 52.8441 905.585C51.7099 905.575 50.5746 905.577 49.4413 905.551C49.1906 905.545 49.0651 905.642 48.9359 905.846C47.3295 908.381 45.7096 910.907 44.1087 913.446C43.8905 913.792 43.6481 913.905 43.2626 913.889C40.369 913.764 37.474 913.662 34.5804 913.539C34.3175 913.528 34.1792 913.612 34.0484 913.841C33.5571 914.703 33.0449 915.553 32.5465 916.41C32.3498 916.749 32.171 917.097 31.9606 917.483C32.4298 917.508 32.847 917.531 33.2642 917.552C35.6546 917.671 38.0447 917.79 40.4353 917.91C40.895 917.933 41.015 918.114 40.8093 918.478C39.4378 920.898 38.0641 923.317 36.6921 925.737C36.6103 925.881 36.5409 926.033 36.4439 926.225C36.6156 926.233 36.7405 926.24 36.8648 926.244C37.9978 926.276 39.1313 926.295 40.2629 926.344C40.5637 926.357 40.7212 926.252 40.8791 925.991C42.3675 923.539 43.8782 921.101 45.3594 918.645C45.6507 918.162 45.9908 917.962 46.5396 917.96C49.3821 917.955 52.2265 917.915 55.07 917.897C55.3105 917.896 55.4489 917.822 55.5766 917.606C56.2111 916.533 56.8621 915.47 57.5065 914.403C57.5538 914.325 57.5915 914.239 57.658 914.111C57.0239 914.106 56.4314 914.102 55.839 914.099C53.6519 914.087 51.4643 914.076 49.2773 914.063C48.8116 914.06 48.6806 913.881 48.8812 913.516C49.9434 911.589 51.0104 909.664 52.0721 907.736C52.4547 907.042 52.8275 906.342 53.2246 905.609L53.225 905.608ZM33.4685 892.659C33.5361 892.827 33.5759 892.935 33.6227 893.039C34.0399 893.969 34.4664 894.894 34.8696 895.831C34.9736 896.073 35.1071 896.149 35.366 896.145C38.3617 896.105 41.357 896.089 44.3534 896.038C44.8093 896.03 45.0397 896.19 45.2311 896.59C46.5311 899.301 47.856 901.999 49.1633 904.707C49.2701 904.928 49.3964 905.008 49.64 905.007C50.6344 905.003 51.6274 905.022 52.6214 905.03C52.7343 905.031 52.8483 905.02 52.9974 905.013C52.9336 904.873 52.8887 904.768 52.8383 904.665C51.572 902.082 50.3048 899.498 49.0385 896.914C48.772 896.371 48.8767 896.208 49.4837 896.223C51.4228 896.273 53.3617 896.325 55.3005 896.377C56.2673 896.402 57.2337 896.428 58.2388 896.455C58.1838 896.306 58.1457 896.197 58.1026 896.09C57.6956 895.091 57.2791 894.096 56.8843 893.091C56.7887 892.847 56.66 892.765 56.4 892.758C53.5386 892.685 50.6786 892.588 47.8173 892.52C47.3261 892.508 47.033 892.315 46.8085 891.882C45.4929 889.339 44.153 886.811 42.836 884.269C42.7062 884.019 42.5677 883.956 42.2967 883.988C41.2576 884.11 40.2168 884.205 39.1763 884.31C39.0508 884.323 38.9261 884.344 38.7662 884.366C38.8306 884.501 38.8768 884.605 38.9288 884.706C40.1643 887.079 41.4002 889.452 42.6353 891.826C42.891 892.318 42.7863 892.5 42.2333 892.511C40.9109 892.537 39.5884 892.557 38.2657 892.579C36.6868 892.606 35.1075 892.633 33.4695 892.661L33.4685 892.659ZM43.6919 913.024C43.7634 912.932 43.7958 912.896 43.8218 912.855C45.4258 910.364 47.0263 907.87 48.637 905.383C48.7705 905.177 48.7146 905.036 48.6298 904.861C47.3936 902.329 46.1605 899.794 44.9267 897.261C44.8677 897.139 44.8019 897.022 44.7241 896.874C44.651 896.972 44.6043 897.025 44.567 897.085C42.9544 899.686 41.3446 902.288 39.7261 904.886C39.6038 905.082 39.6205 905.224 39.7164 905.407C40.607 907.103 41.4897 908.803 42.3752 910.502C42.8057 911.328 43.2376 912.153 43.6924 913.025L43.6919 913.024ZM30.1702 904.618C30.366 904.638 30.4431 904.652 30.5204 904.654C33.2752 904.737 36.0295 904.816 38.7835 904.908C39.0693 904.918 39.2044 904.779 39.3407 904.556C40.9003 902.009 42.4664 899.465 44.029 896.919C44.0815 896.834 44.1222 896.741 44.1801 896.627C44.0819 896.618 44.025 896.608 43.9683 896.609C41.0677 896.638 38.1671 896.671 35.2666 896.691C35.016 896.693 34.9184 896.827 34.8087 897.009C33.6654 898.904 32.5209 900.799 31.3721 902.689C30.9922 903.315 30.5977 903.933 30.1702 904.618ZM30.1697 905.211C30.2274 905.336 30.2611 905.422 30.3049 905.502C31.6075 907.89 32.9125 910.276 34.2106 912.667C34.3352 912.897 34.4949 912.991 34.7591 913C37.1513 913.084 39.5432 913.181 41.9351 913.273C42.3374 913.289 42.7395 913.301 43.19 913.316C43.1336 913.188 43.1064 913.114 43.0711 913.044C41.7971 910.599 40.5196 908.156 39.253 905.707C39.14 905.488 38.9834 905.462 38.7746 905.455C36.0658 905.379 33.3572 905.296 30.6487 905.216C30.5009 905.212 30.3524 905.213 30.1707 905.211L30.1697 905.211ZM49.59 896.783C50.9151 899.482 52.2065 902.113 53.5377 904.824C55.0351 902.186 56.4884 899.627 57.9762 897.007C55.1585 896.932 52.4077 896.858 49.59 896.783ZM42.0746 891.956C40.7735 889.458 39.5056 887.025 38.2042 884.526L33.4769 892.102C36.3549 892.053 39.1793 892.005 42.0746 891.956ZM31.968 918.045C33.3258 920.685 34.6521 923.264 36.0011 925.888C37.4218 923.38 38.8044 920.939 40.2113 918.455C37.4441 918.317 34.7443 918.183 31.9684 918.044L31.968 918.045ZM26.8751 910.202C25.3021 912.562 23.7677 914.863 22.1912 917.228C25.132 917.287 27.9864 917.344 30.9036 917.403C29.5516 914.987 28.2296 912.623 26.8751 910.202ZM31.9885 892.727C29.099 892.613 26.2857 892.501 23.3957 892.386C24.6664 894.813 25.901 897.173 27.1642 899.586C28.7855 897.281 30.3612 895.04 31.9888 892.727L31.9885 892.727ZM53.5743 906.105C52.1971 908.604 50.8618 911.028 49.4945 913.51C52.2008 913.522 54.8492 913.535 57.5591 913.547C56.2172 911.041 54.9159 908.61 53.5752 906.104L53.5743 906.105Z" fill="white" fill-opacity="0.15"/>
</g>
<defs>
<linearGradient id="paint0_linear_1_2" x1="197.5" y1="0" x2="197.5" y2="1024" gradientUnits="userSpaceOnUse">
<stop stop-color="#090E16"/>
<stop offset="1" stop-color="#1C3473"/>
</linearGradient>
<clipPath id="clip0_1_2">
<rect width="395" height="1024" fill="white"/>
</clipPath>
</defs>
</svg>
